<svg xmlns="http://www.w3.org/2000/svg" viewBox="0 0 462 276" fill="none"><path d="M410.743 102.043C410.743 192.059 337.77 265.032 247.754 265.032C157.738 265.032 84.7654 192.059 84.7654 102.043" stroke="#104DBA" stroke-width="20"></path><path d="M141.071 53.1461C141.071 84.2426 115.862 109.451 84.7654 109.451C53.6689 109.451 28.4602 84.2426 28.4602 53.1461" stroke="#104DBA" stroke-width="20"></path><path d="M452 51.9794C452 74.6004 433.463 93.0984 410.399 93.0984C387.334 93.0984 368.797 74.6004 368.797 51.9794C368.797 29.3583 387.334 10.8604 410.399 10.8604C433.463 10.8604 452 29.3583 452 51.9794Z" stroke="#104DBA" stroke-width="20"></path><circle cx="28.9353" cy="29.7956" r="18.9353" stroke="#104DBA" stroke-width="20"></circle><circle cx="140.818" cy="29.7956" r="18.9353" stroke="#104DBA" stroke-width="20"></circle></svg>