<svg xmlns:mydata="http://www.w3.org/2000/svg" mydata:contrastcolor="ffffff" mydata:template="Contrast" mydata:presentation="2.5" mydata:layouttype="undefined" mydata:specialfontid="undefined" mydata:id1="186" mydata:id2="185" mydata:companyname="docconnect" mydata:companytagline="" version="1.1" xmlns="http://www.w3.org/2000/svg" xmlns:xlink="http://www.w3.org/1999/xlink" viewBox="0 35 550 400"><g fill="#00a7b5" fill-rule="none" stroke="none" stroke-width="1" stroke-linecap="butt" stroke-linejoin="miter" stroke-miterlimit="10" stroke-dasharray="" stroke-dashoffset="0" font-family="none" font-weight="none" font-size="none" text-anchor="none" style="mix-blend-mode: normal"><g data-paper-data="{&quot;isGlobalGroup&quot;:true,&quot;bounds&quot;:{&quot;x&quot;:145.99999999999997,&quot;y&quot;:105.99999999999997,&quot;width&quot;:258,&quot;height&quot;:258}}"><g data-paper-data="{&quot;isIcon&quot;:&quot;true&quot;,&quot;iconType&quot;:&quot;icon&quot;,&quot;rawIconId&quot;:&quot;f609741f-18ae-43c0-b4c4-4c3163e18da8&quot;,&quot;selectedEffects&quot;:{&quot;container&quot;:&quot;circle_simple_filled&quot;,&quot;transformation&quot;:&quot;&quot;,&quot;pattern&quot;:&quot;&quot;},&quot;isDetailed&quot;:false,&quot;fillRule&quot;:&quot;nonzero&quot;,&quot;blockLetter&quot;:&quot;O&quot;,&quot;blockLetterId&quot;:0,&quot;relativeBoundsIconToContainer&quot;:{&quot;top&quot;:0.018014231305233712,&quot;left&quot;:0.07894247750357568},&quot;widthRatioIconToContainer&quot;:0.6700745894310219,&quot;heightRatioIconToContainer&quot;:0.8656698685047837,&quot;bounds&quot;:{&quot;x&quot;:199.27842301298128,&quot;y&quot;:159.27842301298128,&quot;width&quot;:151.4426558074064,&quot;height&quot;:151.4426558074065},&quot;iconStyle&quot;:&quot;standalone&quot;,&quot;suitableAsStandaloneIcon&quot;:true}" fill-rule="nonzero"><path d="M199.27842,234.99975c0,-41.81973 33.9016,-75.72133 75.72133,-75.72133c41.81973,0 75.72133,33.9016 75.72133,75.72133c0,41.81973 -33.9016,75.72133 -75.72133,75.72133c-41.81973,0 -75.72133,-33.9016 -75.72133,-75.72133zM279.84107,214.02404c0,-5.76904 -2.35636,-10.40052 -6.98785,-13.89444h6.17531c8.53167,0 15.76329,3.0064 21.77608,9.01921c6.0128,5.93155 9.01921,13.16315 9.01921,21.69483c0,8.36917 -2.92515,15.43827 -8.77544,21.2073c-5.76904,5.76904 -12.83814,8.69418 -21.2073,8.93795zM273.17824,296.57815l-23.48243,-10.9693c-4.46897,-2.84389 -6.74408,-6.9066 -6.74408,-12.18811v-87.42935c0.56878,5.36277 5.28152,10.31926 14.05695,14.78824c1.38132,0.65003 2.92515,1.21881 4.79399,1.70633c2.03135,0.48752 3.65643,1.0563 4.9565,1.62508c4.30646,1.9501 6.41907,5.28152 6.41907,9.91299zM321.03687,189.81033c-11.53808,-11.78184 -25.83879,-17.63213 -42.90214,-17.63213h-28.35766c-3.90019,0 -7.15036,1.38132 -9.75049,4.2252c-2.84389,3.08765 -4.14396,7.0691 -3.73769,11.94434v85.07299c0,7.80039 3.33142,13.73193 9.91299,17.8759l24.21371,11.29431c2.19386,1.0563 4.30646,0.8938 6.33781,-0.48752c2.03135,-1.30007 3.08765,-3.16891 3.08765,-5.52527v-7.63788c16.0883,-0.24376 29.73898,-5.93155 40.95204,-17.1446c11.29431,-11.29431 16.90084,-24.94499 16.90084,-40.95204c0,-15.92579 -5.52527,-29.57647 -16.65709,-41.0333z" data-paper-data="{&quot;isPathIcon&quot;:true}"></path></g><g data-paper-data="{&quot;isPrimaryText&quot;:true}" fill-rule="nonzero"><path d="M177.77597,196.94371c3.31044,0.98511 5.56561,2.68187 6.76552,5.09028c1.1999,2.40841 1.27046,5.39163 0.21167,8.94967l-1.6946,5.69469l-20.11024,-5.98433l1.8788,-6.31368c0.97692,-3.28293 2.60212,-5.57437 4.8756,-6.87432c2.27348,-1.29995 4.96456,-1.48739 8.07326,-0.56231zM176.56799,201.40566c-4.31916,-1.28528 -7.04634,-0.02052 -8.18153,3.79428l-0.67539,2.26962l13.09504,3.89677l0.5444,-1.82945c1.22252,-4.10825 -0.37166,-6.81866 -4.78252,-8.13122z" data-paper-data="{&quot;glyphName&quot;:&quot;D&quot;,&quot;glyphIndex&quot;:0,&quot;firstGlyphOfWord&quot;:true,&quot;word&quot;:1}"></path><path d="M194.30605,169.0129c2.88669,1.93107 4.62661,4.13098 5.21976,6.59975c0.59315,2.46877 -0.00399,5.03914 -1.79143,7.71112c-1.78743,2.67198 -3.93528,4.205 -6.44353,4.59907c-2.50826,0.39407 -5.21368,-0.37975 -8.11628,-2.32146c-2.9026,-1.94171 -4.6392,-4.14228 -5.2098,-6.60172c-0.57061,-2.45944 0.04047,-5.02913 1.83322,-7.70906c1.79275,-2.67993 3.93529,-4.21363 6.42762,-4.60108c2.49232,-0.38746 5.18581,0.38701 8.08045,2.32339zM185.7918,181.74058c1.94832,1.30334 3.66289,1.91505 5.14371,1.83513c1.48082,-0.07992 2.71331,-0.85547 3.69746,-2.32664c1.97362,-2.95031 1.00019,-5.73678 -2.9203,-8.35941c-3.92844,-2.62795 -6.87416,-2.47473 -8.83714,0.45968c-0.98415,1.47118 -1.23122,2.91168 -0.74122,4.32151c0.49001,1.40983 1.70917,2.76641 3.65749,4.06974z" data-paper-data="{&quot;glyphName&quot;:&quot;O&quot;,&quot;glyphIndex&quot;:1,&quot;word&quot;:1}"></path><path d="M205.92593,148.11134c-1.29302,1.06371 -1.89453,2.37314 -1.80454,3.92827c0.08999,1.55513 0.8492,3.20087 2.27761,4.93721c2.97232,3.61306 5.8143,4.30421 8.52595,2.07345c1.13786,-0.93607 2.28183,-2.35415 3.43191,-4.25424l2.37056,2.88158c-0.87408,1.64826 -2.13127,3.14708 -3.77155,4.49648c-2.35699,1.939 -4.7479,2.70727 -7.17275,2.3048c-2.42485,-0.40246 -4.73746,-1.94105 -6.93783,-4.61574c-1.38587,-1.68462 -2.29339,-3.41276 -2.72257,-5.18442c-0.42918,-1.77166 -0.34739,-3.46812 0.24538,-5.08937c0.59277,-1.62125 1.66127,-3.06706 3.2055,-4.33744c1.57379,-1.29469 3.468,-2.21495 5.68263,-2.76076l1.18932,3.70467c-0.84293,0.21027 -1.65916,0.46052 -2.44869,0.75075c-0.78953,0.29023 -1.47985,0.67848 -2.07094,1.16475z" data-paper-data="{&quot;glyphName&quot;:&quot;C&quot;,&quot;glyphIndex&quot;:2,&quot;word&quot;:1}"></path><path d="M231.05856,133.06016c-1.52603,0.68893 -2.44877,1.7957 -2.76822,3.32033c-0.31946,1.52463 -0.01662,3.31156 0.90851,5.3608c1.92506,4.26416 4.48774,5.67385 7.68804,4.22907c1.3429,-0.60626 2.81765,-1.67618 4.42424,-3.20978l1.53532,3.40086c-1.27437,1.36262 -2.8795,2.48091 -4.81537,3.35487c-2.78173,1.25582 -5.29033,1.3727 -7.52579,0.35066c-2.23546,-1.02204 -4.06574,-3.11141 -5.49084,-6.26811c-0.89757,-1.9882 -1.32205,-3.89342 -1.27343,-5.71568c0.04862,-1.82226 0.57082,-3.43841 1.5666,-4.84847c0.99577,-1.41006 2.40492,-2.52647 4.22743,-3.34925c1.85739,-0.83852 3.92625,-1.2319 6.20657,-1.18012l0.18006,3.88673c-0.86859,-0.01727 -1.72185,0.01102 -2.55979,0.08488c-0.83794,0.07386 -1.60571,0.26827 -2.30333,0.5832z" data-paper-data="{&quot;glyphName&quot;:&quot;C&quot;,&quot;glyphIndex&quot;:3,&quot;word&quot;:1}"></path><path d="M270.43598,130.86408c0.48314,3.43927 0.00176,6.20246 -1.44413,8.28958c-1.44589,2.08711 -3.76056,3.35427 -6.94402,3.80147c-3.18346,0.4472 -5.75767,-0.13318 -7.72262,-1.74116c-1.96496,-1.60797 -3.19034,-4.14107 -3.67614,-7.59929c-0.4858,-3.45822 -0.00172,-6.21938 1.45223,-8.28347c1.45395,-2.06409 3.77739,-3.3204 6.97033,-3.76894c3.19293,-0.44853 5.76411,0.12745 7.71352,1.72794c1.94942,1.60049 3.16636,4.12511 3.65083,7.57386zM255.27192,132.99427c0.32608,2.32127 1.01221,4.00744 2.05839,5.05851c1.04617,1.05107 2.44566,1.45349 4.19846,1.20726c3.51507,-0.49378 4.94452,-3.07616 4.28836,-7.74712c-0.65749,-4.68044 -2.7343,-6.7751 -6.23041,-6.28398c-1.7528,0.24623 -2.99165,1.02169 -3.71655,2.32638c-0.72491,1.30469 -0.92432,3.11768 -0.59823,5.43895z" data-paper-data="{&quot;glyphName&quot;:&quot;O&quot;,&quot;glyphIndex&quot;:4,&quot;word&quot;:1}"></path><path d="M300.39284,144.73521l-5.56882,-0.98036l-6.23728,-17.21477l-0.12721,-0.02239c-0.307,2.79237 -0.56418,4.77747 -0.77153,5.95531l-1.7119,9.72423l-3.91513,-0.68924l3.63778,-20.66399l5.52642,0.9729l6.25052,17.05681l0.09894,0.01742c0.33142,-2.71035 0.595,-4.62147 0.79074,-5.73335l1.72185,-9.78077l3.9434,0.69421z" data-paper-data="{&quot;glyphName&quot;:&quot;N&quot;,&quot;glyphIndex&quot;:5,&quot;word&quot;:1}"></path><path d="M327.24896,157.14712l-4.98395,-2.67078l-0.54798,-18.30169l-0.11385,-0.06101c-1.16387,2.55675 -2.02824,4.3622 -2.59313,5.41633l-4.6637,8.70294l-3.50394,-1.87768l9.91037,-18.49374l4.946,2.65045l0.6099,18.15577l0.08855,0.04745c1.16145,-2.47121 2.00879,-4.20437 2.54205,-5.19948l4.69082,-8.75354l3.52924,1.89124z" data-paper-data="{&quot;glyphName&quot;:&quot;N&quot;,&quot;glyphIndex&quot;:6,&quot;word&quot;:1}"></path><path d="M344.91059,172.56445l-8.61628,-8.4723l14.71081,-14.96081l8.61628,8.4723l-2.55578,2.59921l-5.44402,-5.35305l-3.22994,3.28483l5.06539,4.98075l-2.55578,2.59921l-5.06539,-4.98075l-3.79342,3.85788l5.44402,5.35305z" data-paper-data="{&quot;glyphName&quot;:&quot;E&quot;,&quot;glyphIndex&quot;:7,&quot;word&quot;:1}"></path><path d="M371.26234,179.71435c-0.85823,-1.43764 -2.06289,-2.22834 -3.61398,-2.37209c-1.55109,-0.14375 -3.29191,0.36062 -5.22246,1.5131c-4.01719,2.39815 -5.12586,5.10469 -3.32603,8.11964c0.75524,1.26513 1.98616,2.60843 3.69274,4.02992l-3.20389,1.91263c-1.49889,-1.11091 -2.79269,-2.57823 -3.88142,-4.40199c-1.56444,-2.62062 -1.96624,-5.09958 -1.20543,-7.4369c0.76082,-2.33731 2.62816,-4.39363 5.60203,-6.16894c1.87304,-1.11815 3.71754,-1.75684 5.53347,-1.91605c1.81594,-0.15921 3.48105,0.17554 4.99533,1.00425c1.51428,0.82872 2.78391,2.10155 3.80889,3.81851c1.04459,1.74982 1.67101,3.76042 1.87925,6.03179l-3.84094,0.62152c-0.08175,-0.8649 -0.20704,-1.70939 -0.37585,-2.53347c-0.16881,-0.82408 -0.44938,-1.56472 -0.84172,-2.22193z" data-paper-data="{&quot;glyphName&quot;:&quot;C&quot;,&quot;glyphIndex&quot;:8,&quot;word&quot;:1}"></path><path d="M365.34142,211.14232l-1.23683,-4.27356l16.59794,-4.80367l-1.58393,-5.47291l3.5567,-1.02936l4.40469,15.21938l-3.5567,1.02936l-1.58393,-5.47291z" data-paper-data="{&quot;glyphName&quot;:&quot;T&quot;,&quot;glyphIndex&quot;:9,&quot;lastGlyphOfWord&quot;:true,&quot;word&quot;:1}"></path></g><g data-paper-data="{&quot;isContainerElementsWrapper&quot;:true}" fill-rule="evenodd"><path d="M274.99975,106c-17.48575,0 -34.22574,3.38245 -50.22018,10.14746c-15.43626,6.5291 -29.10173,15.741 -40.99642,27.63569c-11.89482,11.89478 -21.10672,25.56025 -27.63569,40.99642c-6.76497,15.9944 -10.14746,32.73446 -10.14746,50.22018c0,17.48565 3.38252,34.22571 10.14755,50.22018c6.52897,15.43652 15.74084,29.1019 27.63559,40.99612c11.8947,11.89489 25.56021,21.10699 40.99652,27.63629c15.99434,6.7651 32.73436,10.14765 50.22008,10.14765c17.48565,0 34.22571,-3.38255 50.22018,-10.14765c15.43652,-6.5293 29.1019,-15.7414 40.99612,-27.63629c11.89489,-11.89423 21.10699,-25.5596 27.63629,-40.99612c6.7651,-15.99447 10.14765,-32.73453 10.14765,-50.22018c0,-17.48555 -3.38255,-34.22564 -10.14865,-50.22018c-6.52864,-15.43609 -15.74007,-29.10157 -27.6343,-40.99642c-11.89489,-11.89482 -25.5606,-21.10672 -40.99712,-27.63569c-15.99381,-6.76497 -32.73387,-10.14746 -50.22018,-10.14746zM216.79924,176.79924c-15.76671,15.76671 -23.79962,34.73689 -24.09874,56.91056h-44.11432c0.16234,-16.67065 3.47485,-32.64569 9.93753,-47.92512c6.39839,-15.12732 15.4263,-28.51973 27.08375,-40.17722c11.65757,-11.65758 25.04998,-20.68549 40.17722,-27.08375c15.67312,-6.6292 32.07814,-9.9438 49.21508,-9.9438c17.13693,0 33.54256,3.3146 49.21587,9.9438c15.127,6.39845 28.51904,15.42637 40.17614,27.08375c11.65776,11.65766 20.68587,25.05006 27.08432,40.17722c6.46321,15.27917 9.77503,31.25418 9.93743,47.92512h-44.11465c-0.2989,-22.1735 -8.33134,-41.14368 -24.09831,-56.91056c-16.07152,-16.07161 -35.47179,-24.10742 -58.20081,-24.10742c-22.72869,0 -42.12886,8.03581 -58.20051,24.10742zM274.99975,155.27182c22.01631,0 40.80815,7.7839 56.37552,23.3517c15.56804,15.56784 23.35206,34.35991 23.35206,56.37622c0,22.01631 -7.78369,40.80848 -23.35106,56.37652c-15.56804,15.56738 -34.36021,23.35106 -56.37652,23.35106c-22.01624,0 -40.80828,-7.78369 -56.37612,-23.35106c-15.56763,-15.56804 -23.35157,-34.35988 -23.35181,-56.37552l0,-0.001c0,-22.01624 7.7839,-40.80832 23.3517,-56.37622c15.56791,-15.5678 34.35998,-23.3517 56.37622,-23.3517zM177.8447,273.03577c-3.31042,0.98438 -6.12635,0.79707 -8.44781,-0.56392c-2.32146,-1.36033 -4.01157,-3.81961 -5.07034,-7.37785l-1.69456,-5.69404l20.11019,-5.98468l1.87879,6.31346c0.97694,3.28325 0.86897,6.09059 -0.32391,8.42201c-1.19281,2.33142 -3.34359,3.95943 -6.45235,4.88502zM385.81293,264.78214l-1.23645,4.27327l-16.59792,-4.80332l-1.58417,5.47286l-3.55691,-1.02921l4.40479,-15.21969l3.55691,1.02931l-1.58417,5.47246zM176.41666,268.63895c2.4264,-0.72201 3.99214,-1.84322 4.69721,-3.36362c0.54998,-1.18564 0.57625,-2.61438 0.07881,-4.28623l-0.67541,-2.26965l-13.09511,3.89666l0.5445,1.82927c0.56784,1.90831 1.47972,3.23177 2.73563,3.97039c1.44767,0.85153 3.35246,0.92593 5.71437,0.22318zM358.99762,287.49356c-0.60876,-1.43372 -0.48521,-2.86944 0.37362,-4.30715c0.39256,-0.65758 0.91065,-1.25538 1.55627,-1.79539c0.64562,-0.54001 1.32911,-1.05014 2.05145,-1.53336l-2.36928,-3.08564c-1.901,1.26136 -3.37358,2.76682 -4.41774,4.51638c-1.02523,1.71668 -1.54332,3.43835 -1.55428,5.16499c-0.01096,1.72565 0.48521,3.35067 1.48653,4.87307c1.00231,1.52339 2.43902,2.84354 4.31213,3.96242c2.97405,1.77447 5.67013,2.44301 8.08823,2.00363c2.4191,-0.43938 4.41077,-1.96975 5.97501,-4.59011c1.08899,-1.82429 1.7665,-3.65854 2.03252,-5.50574l-3.20321,-1.91196c-0.44138,2.17599 -1.04017,3.89766 -1.79539,5.162c-1.80037,3.0149 -4.70867,3.32377 -8.72589,0.92559c-1.93023,-1.15243 -3.20022,-2.44533 -3.80998,-3.87873zM194.07941,301.13835c-2.8867,1.93089 -5.58417,2.69907 -8.09242,2.30552c-2.50822,-0.39455 -4.65611,-1.92691 -6.44354,-4.59907c-1.78742,-2.67217 -2.38462,-5.24271 -1.79141,-7.71162c0.59312,-2.46792 2.34098,-4.6738 5.2436,-6.61565c2.90259,-1.94152 5.5994,-2.70671 8.09044,-2.29555c2.49103,0.41149 4.63293,1.9568 6.42568,4.63694c1.79276,2.68014 2.39254,5.24603 1.79937,7.69767c-0.59318,2.45164 -2.33709,4.64557 -5.23173,6.58178zM185.56516,288.41019c-1.94834,1.30387 -3.16818,2.65523 -3.6595,4.05408c-0.49139,1.39885 -0.245,2.83457 0.73918,4.30615c1.97364,2.95014 4.9207,3.11354 8.84119,0.49119c2.52153,-1.68712 3.82946,-3.43702 3.92377,-5.24968c0.05262,-1.01161 -0.27257,-2.04282 -0.97558,-3.09361c-0.98416,-1.47158 -2.22128,-2.24972 -3.71141,-2.33541c-1.49012,-0.08469 -3.20934,0.52407 -5.15765,1.82728zM359.85247,312.63105l-8.61629,8.47282l-14.71086,-14.96094l8.61629,-8.47282l2.55659,2.59943l-5.44396,5.3533l3.22912,3.28491l5.06536,-4.98067l2.55659,2.59844l-5.06536,4.98167l3.79304,3.8578l5.44396,-5.3533zM210.52194,310.18007c1.50855,-0.38857 2.90939,-0.05081 4.20243,1.01327c0.59112,0.48621 1.10513,1.08899 1.54212,1.80735c0.43699,0.71836 0.83991,1.47158 1.20865,2.25769l3.40597,-1.88108c-0.96246,-2.06739 -2.23059,-3.7492 -3.8044,-5.04344c-1.54425,-1.27066 -3.16894,-2.04049 -4.87406,-2.3095c-1.70512,-0.26901 -3.38544,-0.02192 -5.04115,0.74028c-1.65573,0.76253 -3.17652,1.98602 -4.56239,3.67049c-2.20037,2.67515 -3.2643,5.24071 -3.19177,7.69767c0.07252,2.45696 1.28727,4.65487 3.64426,6.59373c1.64032,1.3497 3.35339,2.29456 5.13922,2.83457l2.37058,-2.8814c-2.08619,-0.76253 -3.69822,-1.61174 -4.8361,-2.54762c-0.97701,-0.80371 -1.58507,-1.69709 -1.82419,-2.68014c-0.42452,-1.74558 0.3139,-3.77411 2.21525,-6.0856c1.42844,-1.73661 2.89694,-2.7987 4.40559,-3.18627zM332.33176,334.30827l4.98366,-2.67117l-9.91053,-18.49394l-3.52901,1.89104l4.69074,8.75378c0.53304,0.99534 1.50646,2.66021 2.92125,4.99661l-0.08867,0.04683l-15.45512,-9.54687l-4.9458,2.65025l9.91053,18.49394l3.5041,-1.87709l-4.66384,-8.70297c-0.56492,-1.05412 -1.58915,-2.77379 -3.07369,-5.15901l0.11358,-0.06078zM236.75699,324.31704c-1.52608,-0.68946 -2.96648,-0.64961 -4.3213,0.11956c-1.35481,0.76917 -2.49482,2.17798 -3.41991,4.22744c-1.2314,2.7273 -1.4142,4.87805 -0.54838,6.45225c0.48774,0.88674 1.30815,1.59048 2.46124,2.11123c1.34286,0.60577 3.12081,1.0043 5.33367,1.1946l-1.53535,3.40148c-1.86494,-0.0548 -3.76524,-0.51909 -5.70112,-1.39287c-2.78176,-1.25638 -4.52863,-3.05974 -5.24061,-5.41308c-0.71191,-2.35267 -0.35533,-5.1072 1.06976,-8.26359c0.8976,-1.98868 2.04587,-3.56687 3.44472,-4.73557c1.39895,-1.1687 2.95652,-1.84621 4.6727,-2.03152c1.71618,-0.18631 3.48557,0.13251 5.30807,0.95548c1.85736,0.83792 3.52074,2.13016 4.99014,3.87474l-2.79611,2.70504c-0.56153,-0.66256 -1.14708,-1.28427 -1.75673,-1.86314c-0.60956,-0.57987 -1.26315,-1.02722 -1.96078,-1.34206zM304.0877,346.25331l-5.56851,0.98039l-11.74139,-14.0493l-0.12723,0.02192c0.66505,2.72896 1.10125,4.68277 1.30868,5.86043l1.7119,9.72421l-3.91519,0.68946l-3.63781,-20.66395l5.52646,-0.97242l11.69954,13.89686l0.09864,-0.01793c-0.61374,-2.66021 -1.01825,-4.54627 -1.21453,-5.65818l-1.72166,-9.781l3.94349,-0.69444zM266.7259,346.97665c1.96497,-1.60808 3.18896,-4.13179 3.67219,-7.57114c0.48442,-3.44831 0.01016,-6.21114 -1.42286,-8.2865c-1.43303,-2.07536 -3.74591,-3.33772 -6.93886,-3.78607c-3.19295,-0.44935 -5.77266,0.11856 -7.73902,1.70273c-1.96636,1.58351 -3.19245,4.10423 -3.67826,7.56217c-0.48571,3.45827 -0.00568,6.23107 1.4402,8.31839c1.44588,2.08699 3.76056,3.35399 6.94404,3.80101c3.18338,0.44735 5.75761,-0.13251 7.72258,-1.74059zM255.81904,342.70537c-0.71616,-1.29922 -0.91115,-3.10856 -0.58505,-5.43002c0.3261,-2.32146 1.01726,-4.00925 2.07357,-5.06337c1.05631,-1.05512 2.46084,-1.45863 4.21369,-1.21254c3.49613,0.49119 4.91541,3.07668 4.25793,7.75745c-0.65619,4.67081 -2.74181,6.75912 -6.25687,6.26594c-1.75275,-0.24643 -2.98717,-1.01892 -3.70327,-2.31747z" data-paper-data="{&quot;isBaseLogoContainer&quot;:true}"></path></g></g></g></svg>