<svg xmlns:mydata="http://www.w3.org/2000/svg" mydata:contrastcolor="ffffff" mydata:template="BlackAndHighlightColorHex1" mydata:presentation="2.5" mydata:layouttype="undefined" mydata:specialfontid="undefined" mydata:id1="478" mydata:id2="479" mydata:companyname="docconnect" mydata:companytagline="" version="1.1" xmlns="http://www.w3.org/2000/svg" xmlns:xlink="http://www.w3.org/1999/xlink" viewBox="0 35 550 400"><g fill="#e03c31" fill-rule="nonzero" stroke="none" stroke-width="1" stroke-linecap="butt" stroke-linejoin="miter" stroke-miterlimit="10" stroke-dasharray="" stroke-dashoffset="0" font-family="none" font-weight="none" font-size="none" text-anchor="none" style="mix-blend-mode: normal"><g data-paper-data="{&quot;isGlobalGroup&quot;:true,&quot;bounds&quot;:{&quot;x&quot;:65,&quot;y&quot;:213.69918125692266,&quot;width&quot;:420,&quot;height&quot;:42.60163748615469}}"><g data-paper-data="{&quot;isPrimaryText&quot;:true}"><path d="M86.15521,256.30082c11.72735,0 21.15521,-9.42787 21.15521,-21.15521v-0.22995c0,-11.72735 -9.42787,-21.15521 -21.15521,-21.15521h-17.706c-1.83958,0 -3.44922,1.49466 -3.44922,3.44922c0,1.95456 1.60964,3.44922 3.44922,3.44922h17.706c7.81823,0 14.25678,6.43854 14.25678,14.25678v0.22995c0,7.81823 -6.43854,14.25678 -14.25678,14.25678h-17.706c-1.83958,0 -3.44922,1.49466 -3.44922,3.44922c0,1.95456 1.60964,3.44922 3.44922,3.44922z" data-paper-data="{&quot;glyphName&quot;:&quot;D&quot;,&quot;glyphIndex&quot;:0,&quot;firstGlyphOfWord&quot;:true,&quot;word&quot;:1}"></path><path d="M133.0646,256.30082c11.72735,0 21.15521,-9.54284 21.15521,-21.27019c0,-11.72735 -9.42787,-21.27019 -21.15521,-21.27019c-11.61237,0 -21.15521,9.54284 -21.15521,21.27019c0,11.72735 9.54284,21.27019 21.15521,21.27019zM133.0646,220.65888c7.81823,0 14.25678,6.43854 14.25678,14.37175c0,7.93321 -6.43854,14.37175 -14.25678,14.37175c-7.81823,0 -14.1418,-6.43854 -14.1418,-14.37175c0,-7.93321 6.32357,-14.37175 14.1418,-14.37175z" data-paper-data="{&quot;glyphName&quot;:&quot;O&quot;,&quot;glyphIndex&quot;:1,&quot;word&quot;:1}"></path><path d="M179.85902,256.18584c0.11497,0 0.11497,0 0.11497,0c5.63373,0 11.0375,-2.29948 15.06159,-6.32357c1.37969,-1.26471 1.37969,-3.56419 0,-4.82891c-1.37969,-1.37969 -3.56419,-1.37969 -4.94388,0c-5.63373,5.51875 -14.71667,5.63373 -20.23542,0c-5.51875,-5.51875 -5.40378,-14.6017 0.11497,-20.12045c5.63373,-5.63373 14.71667,-5.63373 20.23542,-0.11497c1.37969,1.37969 3.56419,1.37969 4.94388,0c1.26471,-1.37969 1.26471,-3.56419 0,-4.94388c-8.27813,-8.16315 -21.73008,-8.16315 -30.12319,0.11497c-8.27813,8.27813 -8.27813,21.73008 0,30.00821c3.90912,4.02409 9.19792,6.2086 14.83165,6.2086z" data-paper-data="{&quot;glyphName&quot;:&quot;C&quot;,&quot;glyphIndex&quot;:2,&quot;word&quot;:1}"></path><path d="M221.82453,256.18584c0.11497,0 0.11497,0 0.11497,0c5.63373,0 11.0375,-2.29948 15.06159,-6.32357c1.37969,-1.26471 1.37969,-3.56419 0,-4.82891c-1.37969,-1.37969 -3.56419,-1.37969 -4.94388,0c-5.63373,5.51875 -14.71667,5.63373 -20.23542,0c-5.51875,-5.51875 -5.40378,-14.6017 0.11497,-20.12045c5.63373,-5.63373 14.71667,-5.63373 20.23542,-0.11497c1.37969,1.37969 3.56419,1.37969 4.94388,0c1.26471,-1.37969 1.26471,-3.56419 0,-4.94388c-8.27813,-8.16315 -21.73008,-8.16315 -30.12319,0.11497c-8.27813,8.27813 -8.27813,21.73008 0,30.00821c3.90912,4.02409 9.19792,6.2086 14.83165,6.2086z" data-paper-data="{&quot;glyphName&quot;:&quot;C&quot;,&quot;glyphIndex&quot;:3,&quot;word&quot;:1}"></path><path d="M263.90501,256.30082c11.72735,0 21.15521,-9.54284 21.15521,-21.27019c0,-11.72735 -9.42787,-21.27019 -21.15521,-21.27019c-11.61237,0 -21.15521,9.54284 -21.15521,21.27019c0,11.72735 9.54284,21.27019 21.15521,21.27019zM263.90501,220.65888c7.81823,0 14.25678,6.43854 14.25678,14.37175c0,7.93321 -6.43854,14.37175 -14.25678,14.37175c-7.81823,0 -14.1418,-6.43854 -14.1418,-14.37175c0,-7.93321 6.32357,-14.37175 14.1418,-14.37175z" data-paper-data="{&quot;glyphName&quot;:&quot;O&quot;,&quot;glyphIndex&quot;:4,&quot;word&quot;:1}"></path><path d="M321.04708,256.30082c0.34492,0 0.68984,0 1.03477,-0.22995c1.49466,-0.4599 2.41445,-1.72461 2.41445,-3.21927v-35.64194c0,-1.95456 -1.60964,-3.44922 -3.44922,-3.44922c-1.95456,0 -3.56419,1.49466 -3.56419,3.44922v25.52423l-21.61511,-27.70873c-0.91979,-1.14974 -2.52943,-1.60964 -3.90912,-1.14974c-1.37969,0.57487 -2.29948,1.83958 -2.29948,3.33425v35.64194c0,1.95456 1.49466,3.44922 3.44922,3.44922c1.95456,0 3.44922,-1.49466 3.44922,-3.44922v-25.52423l21.73008,27.70873c0.68984,0.80482 1.60964,1.26471 2.75938,1.26471z" data-paper-data="{&quot;glyphName&quot;:&quot;N&quot;,&quot;glyphIndex&quot;:5,&quot;word&quot;:1}"></path><path d="M360.48316,256.30082c0.34492,0 0.68984,0 1.03477,-0.22995c1.49466,-0.4599 2.41445,-1.72461 2.41445,-3.21927v-35.64194c0,-1.95456 -1.60964,-3.44922 -3.44922,-3.44922c-1.95456,0 -3.56419,1.49466 -3.56419,3.44922v25.52423l-21.61511,-27.70873c-0.91979,-1.14974 -2.52943,-1.60964 -3.90912,-1.14974c-1.37969,0.57487 -2.29948,1.83958 -2.29948,3.33425v35.64194c0,1.95456 1.49466,3.44922 3.44922,3.44922c1.95456,0 3.44922,-1.49466 3.44922,-3.44922v-25.52423l21.73008,27.70873c0.68984,0.80482 1.60964,1.26471 2.75938,1.26471z" data-paper-data="{&quot;glyphName&quot;:&quot;N&quot;,&quot;glyphIndex&quot;:6,&quot;word&quot;:1}"></path><path d="M399.91924,256.30082c1.83958,0 3.44922,-1.49466 3.44922,-3.44922c0,-1.95456 -1.60964,-3.44922 -3.44922,-3.44922h-27.93868c-1.95456,0 -3.44922,1.49466 -3.44922,3.44922c0,1.95456 1.49466,3.44922 3.44922,3.44922zM400.14919,238.47985c1.83958,0 3.44922,-1.49466 3.44922,-3.44922c0,-1.95456 -1.60964,-3.44922 -3.44922,-3.44922h-28.16863c-1.95456,0 -3.44922,1.49466 -3.44922,3.44922c0,1.95456 1.49466,3.44922 3.44922,3.44922zM399.91924,220.65888c1.83958,0 3.44922,-1.49466 3.44922,-3.44922c0,-1.95456 -1.60964,-3.44922 -3.44922,-3.44922h-27.93868c-1.95456,0 -3.44922,1.49466 -3.44922,3.44922c0,1.95456 1.49466,3.44922 3.44922,3.44922z" data-paper-data="{&quot;glyphName&quot;:&quot;E&quot;,&quot;glyphIndex&quot;:7,&quot;word&quot;:1}"></path><path d="M429.23761,256.18584c0.11497,0 0.11497,0 0.11497,0c5.63373,0 11.0375,-2.29948 15.06159,-6.32357c1.37969,-1.26471 1.37969,-3.56419 0,-4.82891c-1.37969,-1.37969 -3.56419,-1.37969 -4.94388,0c-5.63373,5.51875 -14.71667,5.63373 -20.23542,0c-5.51875,-5.51875 -5.40378,-14.6017 0.11497,-20.12045c5.63373,-5.63373 14.71667,-5.63373 20.23542,-0.11497c1.37969,1.37969 3.56419,1.37969 4.94388,0c1.26471,-1.37969 1.26471,-3.56419 0,-4.94388c-8.27813,-8.16315 -21.73008,-8.16315 -30.12319,0.11497c-8.27813,8.27813 -8.27813,21.73008 0,30.00821c3.90912,4.02409 9.19792,6.2086 14.83165,6.2086z" data-paper-data="{&quot;glyphName&quot;:&quot;C&quot;,&quot;glyphIndex&quot;:8,&quot;word&quot;:1}"></path><path d="M467.52395,256.30082c1.95456,0 3.44922,-1.49466 3.44922,-3.44922v-32.19272h10.57761c1.83958,0 3.44922,-1.49466 3.44922,-3.44922c0,-1.95456 -1.60964,-3.44922 -3.44922,-3.44922h-27.93868c-1.95456,0 -3.44922,1.49466 -3.44922,3.44922c0,1.95456 1.49466,3.44922 3.44922,3.44922h10.46263v32.19272c0,1.95456 1.49466,3.44922 3.44922,3.44922z" data-paper-data="{&quot;glyphName&quot;:&quot;T&quot;,&quot;glyphIndex&quot;:9,&quot;lastGlyphOfWord&quot;:true,&quot;word&quot;:1}"></path></g></g></g></svg>